<?xml version="1.0" standalone="no"?>
<!DOCTYPE svg PUBLIC "-//W3C//DTD SVG 20010904//EN"
 "http://www.w3.org/TR/2001/REC-SVG-20010904/DTD/svg10.dtd">
<svg version="1.0" xmlns="http://www.w3.org/2000/svg"
 width="1600.000000pt" height="2000.000000pt" viewBox="0 0 1600.000000 2000.000000"
 preserveAspectRatio="xMidYMid meet">

<g transform="translate(0.000000,2000.000000) scale(0.100000,-0.100000)"
fill="#000000" stroke="none">
<path d="M1790 12229 c-162 -3 -307 -10 -322 -15 -41 -14 -97 -71 -121 -122
l-22 -47 0 -1695 c0 -1581 1 -1697 17 -1720 23 -33 1011 -1020 1035 -1033 10
-6 21 -15 25 -21 5 -8 341 -11 1155 -11 1096 0 1150 1 1188 18 99 46 216 120
279 176 55 49 96 90 96 96 0 3 9 16 21 28 69 73 153 255 170 369 34 233 -5
424 -123 605 -47 72 -143 175 -229 244 l-44 36 -5 1449 c-4 1057 -8 1454 -16
1469 -7 11 -20 37 -30 58 -11 21 -30 48 -44 60 -54 48 -73 51 -300 54 -459 6
-2450 8 -2730 2z m2799 -311 c9 -18 11 -336 9 -1340 -2 -724 -7 -1320 -11
-1325 -5 -4 -68 -10 -140 -13 -73 -3 -154 -12 -182 -19 -54 -15 -177 -61 -185
-70 -3 -4 -22 -15 -44 -26 -44 -23 -170 -128 -204 -171 -68 -86 -102 -142
-132 -219 -30 -78 -35 -85 -64 -89 -17 -3 -156 -7 -309 -10 -314 -5 -322 -7
-361 -81 -22 -43 -26 -96 -11 -178 5 -33 4 -66 -5 -103 -12 -47 -11 -62 4
-114 15 -57 15 -65 -1 -125 -14 -55 -15 -70 -5 -100 10 -25 10 -40 2 -55 -10
-19 -20 -20 -211 -20 -199 0 -200 0 -224 25 l-25 24 0 235 c0 203 -3 246 -21
323 -11 48 -26 97 -31 108 -16 32 -89 94 -140 121 -47 24 -50 24 -330 24 -312
0 -312 0 -345 63 -15 30 -17 150 -17 1575 -1 1472 0 1544 17 1563 17 19 48 19
1486 19 l1468 0 12 -22z m96 -2929 c84 -32 156 -79 229 -152 62 -61 126 -154
126 -181 0 -8 4 -16 10 -18 21 -7 45 -133 44 -238 0 -188 -54 -312 -192 -448
-123 -120 -259 -172 -448 -172 -87 0 -151 15 -234 54 -92 43 -94 46 -98 139
-2 45 -3 105 -2 132 2 73 3 162 2 225 0 30 0 90 1 132 2 64 -1 81 -19 104 -33
45 -69 66 -120 72 -66 7 -82 34 -46 81 71 93 108 134 154 170 29 22 58 45 63
49 20 16 148 64 194 73 26 4 98 6 161 4 89 -2 129 -8 175 -26z m-677 -464 c24
-21 31 -86 12 -115 -14 -23 -932 -23 -954 0 -26 26 -30 73 -9 99 29 35 94 40
533 37 372 -2 397 -4 418 -21z m-13 -239 c33 -14 35 -17 35 -66 0 -45 -3 -52
-26 -60 -40 -16 -903 -13 -934 3 -33 16 -37 78 -7 104 28 26 93 30 520 31 310
2 384 -1 412 -12z m13 -254 c20 -11 23 -20 20 -60 -5 -73 -5 -73 -508 -70
-387 3 -428 5 -453 21 -22 14 -27 24 -25 58 1 22 6 43 12 47 33 21 916 25 954
4z m5 -249 c16 -19 20 -34 18 -70 -1 -16 -13 -29 -41 -43 -37 -19 -58 -20
-456 -20 -377 0 -419 2 -447 18 -18 9 -36 22 -40 27 -12 16 1 79 20 92 13 10
123 13 473 13 423 0 458 -1 473 -17z"/>
<path d="M2047 11730 c-52 -13 -85 -32 -134 -77 -67 -61 -87 -111 -87 -218 0
-61 5 -102 16 -127 40 -90 156 -173 257 -185 102 -12 255 85 302 191 12 28 24
77 27 111 4 54 1 70 -27 127 -34 73 -91 130 -156 159 -52 23 -146 32 -198 19z
m180 -129 c22 -16 49 -42 61 -58 28 -39 45 -108 36 -146 -4 -18 -7 -35 -6 -39
1 -3 -20 -29 -46 -56 -81 -86 -196 -96 -282 -26 -33 28 -70 112 -70 162 0 110
86 191 206 192 52 0 67 -4 101 -29z"/>
<path d="M2623 11600 c-25 -10 -31 -48 -11 -68 17 -17 999 -17 1016 0 7 7 12
21 12 33 0 45 2 45 -510 44 -267 0 -495 -4 -507 -9z"/>
<path d="M2623 11350 c-28 -11 -31 -57 -5 -76 14 -11 179 -13 883 -14 930 0
905 -1 897 50 -7 50 7 50 -903 49 -482 0 -860 -4 -872 -9z"/>
<path d="M2004 10922 l-161 -2 -14 -26 c-12 -24 -12 -28 8 -44 19 -15 59 -18
335 -24 514 -11 2147 -6 2188 8 29 9 36 16 38 43 3 27 -1 33 -20 38 -24 5
-2098 12 -2374 7z"/>
<path d="M2374 10600 c-70 -18 -86 -25 -195 -84 -30 -16 -67 -32 -83 -35 -29
-6 -44 -24 -146 -169 -16 -24 -30 -49 -30 -57 0 -8 -4 -16 -9 -20 -13 -7 -71
-131 -71 -151 0 -8 -7 -29 -16 -46 -10 -19 -18 -68 -21 -129 -5 -86 -3 -102
15 -132 11 -19 23 -50 27 -68 11 -56 28 -102 52 -141 13 -21 23 -40 23 -43 0
-16 106 -147 156 -194 61 -56 75 -64 194 -107 41 -15 90 -33 109 -42 20 -8 80
-17 142 -20 100 -4 112 -3 161 20 29 14 73 31 98 38 60 16 139 54 171 82 14
13 45 39 68 59 55 49 127 137 146 180 8 19 19 41 25 49 5 8 21 54 36 102 24
82 26 97 22 240 -2 104 -8 161 -17 178 -8 13 -19 45 -26 71 -13 47 -19 58 -62
105 -13 14 -23 27 -23 29 0 5 -13 21 -57 71 -13 14 -23 29 -23 33 0 5 -14 14
-30 20 -20 7 -34 21 -41 40 -6 17 -20 33 -32 36 -20 5 -67 24 -153 61 -101 43
-292 54 -410 24z m557 -417 c0 -5 2 -17 4 -27 5 -26 -22 -76 -40 -76 -8 0 -15
-5 -15 -12 0 -12 -33 -48 -210 -227 -52 -54 -106 -112 -120 -131 -14 -19 -35
-45 -47 -58 -13 -12 -23 -27 -23 -31 0 -11 -62 -41 -84 -41 -15 0 -129 100
-176 155 -25 29 -33 38 -84 83 -14 13 -31 36 -39 51 -24 49 14 75 75 52 13 -5
65 -50 116 -100 101 -99 126 -109 169 -69 13 12 23 24 23 28 0 3 33 40 73 81
39 42 93 98 118 125 108 115 210 204 234 204 14 0 25 -3 26 -7z"/>
<path d="M3424 10312 c-6 -4 -13 -17 -17 -30 -4 -17 1 -27 21 -40 24 -15 67
-17 484 -16 486 1 488 1 488 48 0 46 2 46 -495 46 -258 0 -475 -4 -481 -8z"/>
<path d="M3438 10072 c-16 -2 -28 -9 -28 -17 0 -7 -3 -20 -6 -28 -3 -9 4 -25
15 -36 21 -21 28 -21 491 -21 l470 0 12 25 c14 31 -3 75 -29 75 -10 -1 -216 1
-458 2 -242 2 -452 2 -467 0z"/>
<path d="M3428 9813 c-22 -6 -32 -37 -19 -62 16 -29 97 -33 557 -29 422 3 434
5 434 48 0 44 -8 45 -494 47 -254 0 -469 -1 -478 -4z"/>
<path d="M3410 9551 c-14 -28 -13 -38 10 -61 19 -19 33 -20 448 -19 235 0 447
4 472 7 37 6 46 12 55 35 19 57 20 57 -502 57 -457 0 -473 -1 -483 -19z"/>
<path d="M4468 8832 c-9 -4 -27 -23 -40 -42 -13 -19 -40 -46 -60 -59 -24 -15
-47 -44 -67 -85 -29 -58 -30 -65 -22 -124 13 -83 40 -111 149 -153 91 -35 152
-83 152 -118 0 -35 -28 -79 -60 -96 -26 -13 -34 -13 -71 -1 -24 8 -47 22 -51
30 -12 21 -59 43 -80 39 -9 -3 -20 -12 -23 -22 -9 -29 38 -121 62 -121 12 0
73 -75 73 -89 0 -12 33 -31 54 -31 9 0 32 24 51 53 19 29 48 60 64 70 15 9 34
30 41 47 7 16 16 30 21 30 12 0 22 84 14 129 -11 68 -68 117 -193 167 -75 30
-102 57 -102 104 0 57 62 110 112 95 13 -4 46 -25 75 -47 46 -35 54 -38 72
-26 40 25 16 85 -63 162 -23 23 -50 53 -59 69 -18 28 -22 30 -49 19z"/>
<path d="M5166 11064 c-14 -14 -16 -108 -16 -884 0 -847 0 -869 19 -882 16
-11 113 -13 523 -11 l503 2 75 24 c112 37 156 64 241 149 61 60 79 85 85 115
4 21 13 55 20 76 20 57 20 218 0 258 -9 18 -16 46 -16 63 0 51 -62 133 -137
183 -28 19 -32 70 -5 80 28 11 47 34 83 98 18 33 38 63 43 67 7 5 11 63 11
155 0 121 -3 154 -17 182 -10 19 -18 40 -18 48 0 16 -60 99 -94 131 -30 27
-94 72 -104 72 -4 0 -39 16 -79 36 -42 20 -99 39 -135 45 -35 5 -266 9 -515 9
-397 0 -453 -2 -467 -16z m924 -359 c8 -7 25 -16 37 -19 53 -17 93 -131 72
-208 -5 -21 -17 -42 -25 -45 -7 -3 -14 -10 -15 -17 0 -6 -13 -21 -30 -34 -40
-33 -117 -42 -352 -42 -241 0 -263 6 -253 73 3 23 6 97 7 165 1 74 7 126 13
131 18 15 51 16 296 13 171 -3 239 -8 250 -17z m21 -715 c44 -12 104 -64 118
-103 36 -94 -13 -200 -119 -256 -30 -16 -69 -20 -276 -26 l-240 -7 -30 25 -29
25 -5 146 c-6 164 -3 187 26 201 26 13 506 9 555 -5z"/>
<path d="M6816 11072 c-15 -3 -16 -78 -16 -887 0 -695 3 -884 13 -891 6 -5 86
-9 177 -9 l165 0 11 25 c18 38 28 1696 11 1730 -12 25 -14 25 -178 30 -92 3
-174 4 -183 2z"/>
<path d="M8389 11053 c-12 -13 -14 -162 -15 -870 -1 -782 0 -856 15 -875 16
-20 29 -20 425 -25 341 -5 410 -3 417 8 10 16 12 211 3 257 -3 17 -13 33 -20
36 -8 3 -111 8 -229 12 -152 5 -218 11 -225 20 -7 8 -12 249 -13 716 -2 581
-4 708 -16 721 -11 15 -37 17 -171 17 -134 0 -160 -2 -171 -17z"/>
<path d="M9380 11051 c-7 -13 -10 -308 -10 -885 0 -828 1 -866 18 -875 25 -13
340 -17 353 -4 6 6 12 139 15 329 3 175 7 325 9 332 3 9 62 12 248 12 207 0
246 2 257 15 17 20 8 301 -9 318 -8 8 -89 14 -246 17 -161 4 -238 9 -246 17
-15 15 -15 371 0 386 6 6 106 9 248 8 149 -1 249 2 267 8 l28 11 -3 138 c-1
92 -7 146 -16 165 l-14 27 -444 0 c-429 0 -445 -1 -455 -19z"/>
<path d="M7422 10838 c-7 -9 -10 -239 -8 -767 l3 -754 21 -17 c19 -16 57 -18
398 -19 327 -2 379 0 400 14 23 15 24 20 24 138 0 174 14 165 -242 166 -177 1
-205 4 -215 18 -10 13 -13 148 -13 592 0 317 -3 586 -6 597 -3 12 -16 26 -28
32 -35 16 -320 16 -334 0z"/>
<path d="M10478 10830 c-17 -10 -18 -55 -12 -768 6 -741 7 -757 26 -774 19
-17 53 -18 409 -18 318 0 396 3 424 14 l35 15 0 139 c0 100 -4 142 -12 150 -8
6 -111 12 -246 14 -204 4 -235 6 -250 21 -16 16 -17 62 -17 606 0 324 -4 593
-8 598 -13 12 -329 15 -349 3z"/>
<path d="M11488 10833 c-23 -3 -42 -11 -47 -21 -6 -11 -6 -222 -2 -537 l8
-520 26 -81 c15 -44 45 -109 68 -144 43 -67 143 -170 165 -170 7 0 14 -4 16
-8 6 -14 92 -59 143 -75 100 -31 286 -38 408 -17 53 10 192 69 207 89 3 3 25
21 50 40 65 49 132 133 157 198 13 31 32 109 43 172 19 108 20 149 18 579 l-3
464 -23 18 c-19 16 -40 18 -166 17 -102 -2 -148 -6 -159 -15 -14 -12 -16 -62
-15 -450 1 -486 -7 -597 -49 -669 -46 -79 -126 -123 -233 -130 -102 -7 -191
42 -236 128 -41 81 -46 135 -53 637 -5 413 -8 484 -21 492 -14 9 -223 11 -302
3z"/>
<path d="M12846 10815 c-6 -16 19 -67 77 -158 20 -31 37 -61 37 -66 0 -5 6
-16 13 -23 6 -7 20 -29 30 -48 21 -42 33 -61 72 -119 17 -24 35 -51 40 -60 6
-8 27 -39 48 -68 20 -29 37 -55 37 -58 0 -4 16 -25 35 -48 56 -65 56 -93 0
-177 -25 -38 -50 -70 -55 -70 -4 0 -13 -14 -20 -31 -7 -17 -18 -36 -24 -43
-16 -17 -56 -74 -56 -80 0 -2 -18 -32 -40 -65 -22 -33 -40 -64 -40 -70 0 -5
-6 -16 -13 -23 -7 -7 -30 -43 -50 -80 -21 -38 -42 -68 -47 -68 -6 0 -10 -9
-10 -20 0 -11 -3 -20 -7 -20 -16 0 -64 -90 -61 -112 3 -22 9 -24 110 -32 61
-5 141 -5 185 0 l77 9 39 50 c35 46 55 79 89 145 7 14 30 52 53 85 22 33 52
83 66 112 40 79 72 104 86 66 4 -10 23 -41 42 -68 41 -57 52 -75 81 -125 23
-40 30 -51 83 -133 20 -32 37 -62 37 -66 0 -4 15 -21 33 -38 l32 -31 182 -4
c205 -3 214 -1 189 53 -21 45 -54 98 -71 116 -8 8 -15 21 -15 29 0 8 -7 17
-15 20 -8 4 -15 13 -15 21 0 8 -13 31 -29 51 -16 20 -44 63 -61 95 -30 55 -90
152 -154 248 -50 73 -86 147 -86 173 0 15 50 99 125 210 69 103 125 190 125
195 0 5 3 11 8 13 4 2 25 32 46 68 22 36 42 67 45 70 3 3 15 21 25 40 11 19
22 37 25 40 15 12 41 70 41 89 0 21 -4 21 -191 21 l-191 0 -29 -31 c-16 -17
-29 -38 -29 -46 0 -13 -13 -39 -70 -138 -13 -22 -32 -56 -42 -75 -10 -19 -27
-48 -38 -65 -11 -16 -27 -45 -37 -63 -12 -23 -23 -32 -37 -30 -19 3 -84 82
-85 104 -1 6 -7 17 -15 23 -8 7 -27 37 -42 69 -26 53 -62 112 -83 138 -5 6
-12 21 -16 34 -4 12 -20 36 -36 51 l-30 29 -183 0 c-154 0 -185 -2 -190 -15z"/>
<path d="M5648 8942 c-66 -6 -68 -13 -68 -303 0 -235 1 -257 18 -272 22 -20
63 -22 80 -5 7 7 12 39 13 72 1 82 13 115 22 60 6 -35 21 -76 46 -123 13 -25
57 -34 88 -19 22 10 30 23 36 58 16 85 17 90 27 90 6 0 10 -28 10 -61 0 -47 4
-65 18 -75 22 -17 86 -18 100 -1 15 17 16 530 2 557 -18 34 -121 39 -163 7
-11 -8 -22 -42 -32 -95 -19 -109 -31 -132 -41 -74 -3 23 -10 42 -14 42 -4 0
-10 25 -13 56 -3 30 -11 61 -17 69 -12 15 -57 21 -112 17z"/>
<path d="M6155 8925 c-14 -14 -25 -36 -25 -52 -1 -27 -11 -167 -29 -383 -4
-58 -6 -110 -4 -117 7 -17 59 -36 82 -28 12 3 24 17 27 30 8 30 39 59 58 52 8
-3 17 -20 21 -37 9 -40 45 -56 83 -38 25 12 27 19 30 77 2 35 -4 93 -12 130
-8 36 -18 130 -22 208 -4 78 -10 145 -13 150 -15 21 -56 33 -111 33 -51 0 -65
-4 -85 -25z"/>
<path d="M6468 8943 c-9 -2 -19 -12 -22 -21 -3 -9 -6 -137 -8 -284 -2 -194 0
-270 9 -279 15 -15 94 -14 104 3 5 7 9 25 9 40 0 15 5 30 11 34 15 9 29 -14
29 -48 0 -32 10 -40 60 -45 23 -3 40 1 48 9 18 22 21 560 3 581 -30 38 -91 2
-91 -53 0 -37 -34 -23 -55 23 -17 35 -25 42 -50 44 -16 0 -38 -1 -47 -4z"/>
<path d="M6836 8928 c-25 -22 -26 -30 -37 -187 -5 -91 -17 -189 -25 -220 -18
-70 -18 -145 -1 -160 23 -18 75 -25 92 -11 8 7 20 30 25 51 17 61 64 50 72
-15 4 -34 39 -49 86 -37 26 7 27 10 30 84 2 50 -3 95 -13 129 -10 32 -18 105
-21 183 -3 72 -7 140 -10 152 -10 52 -149 74 -198 31z m114 -284 c0 -68 -3
-84 -15 -84 -17 0 -19 38 -9 127 10 79 24 53 24 -43z"/>
<path d="M7195 8941 c-11 -5 -28 -18 -38 -29 -37 -41 -46 -90 -46 -262 -1
-199 3 -229 39 -271 22 -27 34 -33 66 -32 69 0 160 10 172 17 8 5 12 55 12
162 l0 156 -30 11 c-16 6 -30 14 -30 18 0 4 14 19 31 34 29 24 31 29 27 77 -3
29 -11 54 -17 56 -6 2 -11 9 -11 16 0 7 -17 22 -39 34 -39 22 -99 28 -136 13z
m80 -143 c12 -42 30 -78 38 -78 15 0 -4 -21 -27 -30 -12 -4 -26 -3 -33 2 -13
11 -18 109 -6 121 12 13 22 7 28 -15z m-7 -195 c6 -10 13 -37 16 -59 6 -32 3
-45 -9 -58 -9 -9 -21 -14 -26 -11 -16 10 -10 145 7 145 2 0 7 -8 12 -17z"/>
<path d="M7474 8925 l-25 -25 7 -218 c4 -136 3 -230 -3 -253 -12 -42 -1 -63
41 -79 37 -14 149 -13 180 2 65 29 32 118 -44 118 -27 0 -43 36 -36 78 6 39
19 52 55 52 27 0 50 25 51 56 0 26 -35 64 -60 64 -24 0 -50 26 -50 50 0 27 27
50 59 50 37 0 51 17 51 61 0 55 -25 69 -123 69 -70 0 -80 -3 -103 -25z"/>
<path d="M7913 8928 c-23 -24 -23 -28 -23 -291 0 -253 1 -267 19 -277 27 -14
72 -12 94 4 14 11 17 29 17 98 0 94 11 114 66 124 51 9 70 29 84 87 18 76 9
176 -19 216 -31 43 -50 51 -138 57 -73 6 -79 5 -100 -18z"/>
<path d="M8303 8940 c-35 -14 -42 -39 -58 -206 -8 -88 -20 -195 -25 -239 -6
-44 -10 -90 -10 -102 0 -54 113 -61 126 -7 5 21 30 44 48 44 2 0 10 -16 16
-35 14 -43 45 -53 107 -36 30 8 50 8 63 1 31 -17 65 -11 89 14 21 22 22 29 12
57 -7 20 -11 116 -11 254 0 198 -2 225 -17 243 -23 27 -66 19 -82 -14 -7 -15
-11 -98 -12 -212 -1 -103 -5 -200 -9 -217 -7 -27 -8 -26 -9 16 0 25 -7 59 -15
75 -9 16 -20 93 -27 179 -11 138 -14 151 -37 172 -20 18 -36 23 -76 22 -28 0
-61 -4 -73 -9z m77 -354 c0 -9 -7 -12 -20 -9 -11 3 -20 9 -20 14 0 5 9 9 20 9
11 0 20 -6 20 -14z"/>
<path d="M8763 8944 c-12 -3 -26 -11 -31 -17 -5 -7 -13 -132 -17 -278 -8 -305
-12 -292 80 -304 62 -7 127 0 166 21 47 24 54 60 54 279 0 217 -6 246 -60 281
-24 16 -149 27 -192 18z m118 -176 c4 -183 -6 -306 -25 -287 -7 7 -15 275 -9
298 9 34 33 26 34 -11z"/>
<path d="M9755 8943 c-11 -3 -23 -10 -27 -17 -4 -6 -8 -119 -8 -250 0 -232 1
-241 23 -273 16 -25 35 -37 76 -49 109 -32 172 8 185 118 3 29 7 139 8 245 3
170 1 194 -14 209 -25 25 -63 26 -85 2 -16 -18 -18 -43 -21 -217 -3 -204 -12
-262 -38 -236 -11 11 -14 58 -14 228 0 160 -3 217 -12 225 -18 14 -50 20 -73
15z"/>
<path d="M10080 8924 c-6 -14 -10 -107 -11 -207 0 -100 -4 -215 -8 -255 -9
-92 2 -112 60 -112 46 0 88 34 90 72 1 15 4 9 10 -16 11 -48 32 -64 76 -60 64
5 63 -1 63 299 l0 273 -24 15 c-13 9 -37 15 -52 13 -30 -3 -41 -22 -60 -101
-7 -29 -7 -29 -15 15 -10 52 -45 87 -90 88 -23 0 -32 -5 -39 -24z"/>
<path d="M10429 8929 l-25 -24 2 -263 c1 -189 5 -267 14 -277 15 -19 74 -20
89 -2 6 8 14 54 17 103 4 49 11 95 16 101 6 7 26 15 47 19 20 4 44 11 53 15
39 20 63 194 37 267 -15 44 -65 70 -152 78 -68 6 -75 5 -98 -17z m126 -149 c7
-23 -2 -60 -16 -60 -5 0 -9 18 -9 40 0 42 14 54 25 20z"/>
<path d="M10800 8923 c-30 -28 -31 -30 -41 -168 -5 -77 -15 -178 -21 -225 -19
-143 -17 -163 14 -177 36 -18 70 -3 96 40 25 43 57 41 66 -4 8 -43 48 -56 105
-35 30 11 48 13 55 6 15 -15 82 -12 96 5 17 21 44 19 65 -5 20 -22 65 -25 164
-11 98 14 114 58 112 315 -2 205 -10 235 -70 264 -50 24 -173 24 -198 0 -21
-22 -32 -111 -32 -279 -1 -69 -4 -154 -7 -188 -13 -121 -24 -57 -24 138 0 150
3 201 13 204 9 4 9 7 0 14 -7 5 -15 28 -18 52 -7 54 -19 71 -55 71 -51 0 -55
-15 -57 -234 -2 -254 -1 -248 -12 -242 -5 3 -11 18 -14 33 -3 16 -10 48 -16
73 -6 25 -15 108 -21 185 -10 138 -10 140 -40 168 -25 22 -40 27 -80 27 -40 0
-55 -5 -80 -27z m590 -318 c0 -91 -3 -115 -14 -115 -24 0 -39 26 -27 49 6 11
11 56 11 100 0 65 3 81 15 81 12 0 15 -19 15 -115z m-508 -17 c-6 -6 -15 -8
-19 -4 -4 4 -1 11 7 16 19 12 27 3 12 -12z"/>
<path d="M11753 8934 c-23 -19 -23 -22 -24 -294 0 -319 -7 -300 106 -300 121
0 149 18 175 113 14 53 9 157 -11 200 -9 20 -9 33 1 57 17 41 16 129 -1 165
-24 49 -58 66 -145 72 -68 5 -82 3 -101 -13z m125 -146 c-4 -27 -28 -36 -28
-10 0 20 8 32 22 32 5 0 8 -10 6 -22z m14 -244 c-2 -46 -27 -78 -42 -54 -13
20 -12 62 0 96 10 25 12 26 27 11 10 -10 16 -31 15 -53z"/>
<path d="M12077 8931 c-25 -28 -40 -117 -32 -186 4 -38 2 -95 -6 -140 -14 -88
3 -217 33 -247 21 -21 61 -23 77 -5 14 18 16 549 2 576 -13 23 -55 24 -74 2z"/>
<path d="M12229 8924 c-24 -26 -24 -26 -27 -288 l-3 -263 37 -18 c29 -13 54
-16 115 -13 43 3 85 10 94 18 13 11 22 10 55 -5 32 -14 55 -17 118 -12 116 9
131 19 111 77 -9 25 -16 30 -43 30 -17 0 -42 7 -54 16 -21 14 -22 22 -22 142
0 70 -3 171 -7 225 -6 92 -8 99 -30 108 -34 13 -69 2 -81 -26 -6 -13 -11 -110
-12 -234 0 -117 -3 -225 -7 -242 -6 -30 -23 -41 -23 -14 0 17 -30 35 -58 35
-44 0 -49 24 -55 235 -3 110 -10 212 -16 228 -14 36 -58 37 -92 1z"/>
<path d="M12825 8938 c-39 -23 -53 -44 -65 -98 -14 -62 -1 -137 26 -147 7 -3
14 -9 14 -14 0 -6 9 -20 20 -32 29 -30 22 -61 -15 -67 -61 -10 -74 -105 -26
-182 32 -51 48 -57 126 -54 101 5 141 59 133 182 -3 40 -11 81 -19 90 -7 9
-18 25 -24 35 -5 10 -31 45 -58 78 -29 37 -43 62 -37 66 6 4 19 0 29 -9 26
-24 88 -21 101 4 12 23 -4 90 -21 90 -5 0 -9 7 -9 15 0 41 -125 72 -175 43z
m90 -418 c8 -35 0 -51 -20 -43 -9 3 -15 18 -15 37 0 55 23 59 35 6z"/>
<path d="M9333 8877 c-18 -7 -42 -23 -55 -37 -20 -22 -23 -35 -23 -110 0 -70
-4 -93 -24 -130 -43 -82 -26 -221 31 -247 13 -6 69 -9 127 -7 129 3 140 11
112 75 -26 57 -26 92 1 146 25 49 17 78 -20 78 -32 1 -35 9 -18 50 18 42 21
117 6 144 -8 17 -79 52 -98 50 -4 0 -21 -6 -39 -12z"/>
</g>
</svg>
